<?xml version="1.0" encoding="UTF-8" standalone="no"?><!DOCTYPE svg PUBLIC "-//W3C//DTD SVG 1.1//EN" "http://www.w3.org/Graphics/SVG/1.1/DTD/svg11.dtd"><svg width="100%" height="100%" viewBox="0 0 1067 1067" version="1.1" xmlns="http://www.w3.org/2000/svg" xmlns:xlink="http://www.w3.org/1999/xlink" xml:space="preserve" xmlns:serif="http://www.serif.com/" style="fill-rule:evenodd;clip-rule:evenodd;stroke-linejoin:round;stroke-miterlimit:2;"><g><g><path d="M532.917,41.667c-132.5,-0 -259.584,55 -347.917,143.333c-87.083,88.333 -143.333,215.417 -143.333,347.917c-0,182.083 98.333,337.916 242.916,425c71.667,42.916 160,67.5 248.334,67.5c137.916,-0 258.333,-55 347.916,-144.584c119.167,-119.166 175.417,-302.5 127.084,-477.916c-57.917,-210 -247.5,-361.25 -475,-361.25Zm-64.167,736.25c-49.583,48.75 -130.417,48.75 -180,-0c-49.583,-49.584 -49.583,-130.417 0,-180l127.083,-127.084c49.584,-49.583 130.417,-49.583 180,0l3.334,3.334c1.25,1.25 2.083,1.25 2.083,2.083l5.417,6.667l-0,1.25c7.916,13.333 5.416,25.416 -5.417,36.25c-10,10 -22.083,12.083 -35.417,4.583c-1.25,0 -5.416,-5.417 -13.333,-10.833c-26.667,-26.667 -66.25,-25.417 -93.75,-1.25l-127.083,128.333c-26.667,25.417 -26.667,67.5 -0,93.75c26.666,25.417 67.5,25.417 93.75,0l76.25,-77.083c28.75,14.166 57.5,14.166 85,1.25l-117.917,118.75Zm309.167,-310.417l-127.084,128.333c-49.583,48.75 -130.416,48.75 -180,0l-4.166,-4.166c-1.25,-1.25 -1.25,-1.25 -1.25,-2.084l-5.417,-6.666c-7.917,-13.334 -5.417,-25.417 4.583,-35.417c10.834,-10.833 23.334,-13.333 36.25,-6.667c1.25,0 2.084,1.25 4.584,3.334l8.75,8.75c26.666,25.416 67.5,25.416 93.75,-0l127.083,-127.917c26.667,-25.417 26.667,-67.5 0,-92.917c-26.667,-26.666 -67.5,-26.666 -93.75,0l-76.25,76.25c-28.75,-14.166 -57.5,-14.166 -85,-1.25l117.917,-117.916c49.583,-49.584 130.416,-49.584 180,-0c25.416,24.166 37.5,54.166 37.5,89.583c-0,34.583 -12.084,64.583 -37.5,88.75Z" style="fill:#fff;fill-rule:nonzero;"/></g></g></svg>