<?xml version="1.0" encoding="UTF-8" standalone="no"?><!DOCTYPE svg PUBLIC "-//W3C//DTD SVG 1.1//EN" "http://www.w3.org/Graphics/SVG/1.1/DTD/svg11.dtd"><svg width="100%" height="100%" viewBox="0 0 3334 3334" version="1.1" xmlns="http://www.w3.org/2000/svg" xmlns:xlink="http://www.w3.org/1999/xlink" xml:space="preserve" xmlns:serif="http://www.serif.com/" style="fill-rule:evenodd;clip-rule:evenodd;stroke-linejoin:round;stroke-miterlimit:2;"><path d="M2343.4,1154.69c-29.231,-75.708 -89.193,-135.606 -164.931,-164.757c-51.595,-19.11 -106.094,-29.211 -161.111,-29.862c-91.493,-4.166 -118.924,-5.208 -350.694,-5.208c-231.771,0 -259.202,1.042 -350.695,5.208c-55.075,0.631 -109.634,10.732 -161.285,29.862c-75.707,29.231 -135.605,89.192 -164.756,164.93c-19.11,51.596 -29.211,106.094 -29.862,161.111c-4.166,91.493 -5.208,118.924 -5.208,350.695c0,231.771 1.042,259.201 5.208,350.694c0.631,55.076 10.732,109.634 29.862,161.285c29.231,75.707 89.192,135.605 164.93,164.757c51.596,19.11 106.094,29.211 161.111,29.861c91.493,4.167 118.924,5.035 350.695,5.035c231.771,-0 259.201,-0.868 350.694,-5.209c55.065,-0.574 109.624,-10.617 161.285,-29.687c75.707,-29.231 135.605,-89.193 164.757,-164.931c19.11,-51.595 29.211,-106.094 29.861,-161.111c4.167,-91.493 5.035,-118.923 5.035,-350.694c-0,-231.771 -0.868,-259.202 -5.209,-350.695c-0.574,-55.065 -10.617,-109.624 -29.687,-161.285Zm-676.736,957.813c-244.577,-0 -445.834,-201.256 -445.834,-445.833c0,-244.577 201.257,-445.834 445.834,-445.834c244.577,0 445.833,201.257 445.833,445.834c-0,244.577 -201.256,445.833 -445.833,445.833Zm463.368,-805.035c-57.144,0 -104.167,-47.022 -104.167,-104.166c0,-57.145 47.023,-104.167 104.167,-104.167c57.144,-0 104.166,47.022 104.166,104.167c0,57.144 -47.022,104.166 -104.166,104.166Zm-173.959,359.202c0,158.765 -130.644,289.409 -289.409,289.409c-158.766,0 -289.41,-130.644 -289.41,-289.409c-0,-158.766 130.644,-289.41 289.41,-289.41c158.765,-0 289.409,130.644 289.409,289.41Zm-289.409,-1666.67c-914.307,-0 -1666.67,752.36 -1666.67,1666.67c-0,914.306 752.36,1666.67 1666.67,1666.67c914.306,0 1666.67,-752.36 1666.67,-1666.67c0,-914.307 -752.36,-1666.67 -1666.67,-1666.67Zm862.847,2024.48c-1.47,72.036 -15.148,143.303 -40.452,210.764c-45.061,116.521 -137.298,208.758 -253.819,253.82c-67.406,25.284 -138.613,38.961 -210.59,40.451c-92.709,4.167 -122.222,5.208 -357.986,5.208c-235.764,0 -265.278,-1.041 -357.986,-5.208c-71.978,-1.49 -143.184,-15.167 -210.591,-40.452c-116.52,-45.061 -208.757,-137.298 -253.819,-253.819c-25.284,-67.406 -38.962,-138.613 -40.452,-210.59c-4.166,-92.709 -5.208,-122.222 -5.208,-357.986c0,-235.764 1.042,-265.278 5.208,-357.986c1.434,-71.967 15.053,-143.174 40.278,-210.591c45.061,-116.621 137.372,-208.932 253.993,-253.993c67.417,-25.225 138.624,-38.844 210.591,-40.278c92.708,-4.166 122.222,-5.208 357.986,-5.208c235.764,0 265.277,1.042 357.986,5.208c71.967,1.434 143.173,15.053 210.59,40.278c116.556,45.101 208.798,137.407 253.819,253.993c25.285,67.407 38.962,138.613 40.452,210.591c4.167,92.708 5.208,122.222 5.208,357.986c0,235.764 -1.041,265.277 -5.208,357.986l-0,-0.174Z" style="fill:#728185;fill-rule:nonzero;"/></svg>