<?xml version="1.0" encoding="UTF-8" standalone="no"?><!DOCTYPE svg PUBLIC "-//W3C//DTD SVG 1.1//EN" "http://www.w3.org/Graphics/SVG/1.1/DTD/svg11.dtd"><svg width="100%" height="100%" viewBox="0 0 3334 3334" version="1.1" xmlns="http://www.w3.org/2000/svg" xmlns:xlink="http://www.w3.org/1999/xlink" xml:space="preserve" xmlns:serif="http://www.serif.com/" style="fill-rule:evenodd;clip-rule:evenodd;stroke-linejoin:round;stroke-miterlimit:2;"><path d="M1666.67,66.667c-883.667,-0 -1600,716.333 -1600,1600c-0,883.666 716.333,1600 1600,1600c883.666,-0 1600,-716.334 1600,-1600c-0,-883.667 -716.334,-1600 -1600,-1600Zm-628.167,1100l1253.33,-0c66.5,-0 32.167,85.333 -4,107.166c-36.166,21.667 -536.666,324.5 -555.5,335.667c-18.833,11.167 -42.833,16.667 -67.166,16.667c-23.414,0.479 -46.54,-5.274 -67,-16.667l-555.667,-335.667c-36.167,-21.833 -70.333,-107.166 -4,-107.166Zm1294.83,916.666c0,35 -42,83.334 -74,83.334l-1185.33,-0c-32,-0 -74,-48.334 -74,-83.334l-0,-607.833c-0,-15.333 -0.333,-35.167 28.667,-18.333l569.5,335.833c20.096,12.285 43.49,18.104 67,16.667c24.333,-0 42,-1.834 67.166,-16.667l572.334,-335.667c29,-17 28.666,3 28.666,18.334l0,607.666Z" style="fill:#728185;fill-rule:nonzero;"/></svg>