<?xml version="1.0" encoding="UTF-8" standalone="no"?><!DOCTYPE svg PUBLIC "-//W3C//DTD SVG 1.1//EN" "http://www.w3.org/Graphics/SVG/1.1/DTD/svg11.dtd"><svg width="100%" height="100%" viewBox="0 0 7334 7334" version="1.1" xmlns="http://www.w3.org/2000/svg" xmlns:xlink="http://www.w3.org/1999/xlink" xml:space="preserve" xmlns:serif="http://www.serif.com/" style="fill-rule:evenodd;clip-rule:evenodd;stroke-linejoin:round;stroke-miterlimit:2;"><path d="M3665.29,28.662c-2013.58,0 -3645.83,1628.2 -3645.83,3636.55c0,2008.49 1632.26,3636.68 3645.83,3636.68c2013.45,-0 3645.83,-1628.17 3645.83,-3636.68c0,-2008.35 -1632.38,-3636.55 -3645.83,-3636.55Zm42.587,5763.54c-1175.14,0 -2126.96,-951.821 -2126.96,-2126.96c-0,-1175.12 951.821,-2126.94 2126.96,-2126.94c574.304,-0 1054.11,211.354 1422.43,554.338l-599.654,599.55l0,-1.355c-223.279,-212.708 -506.404,-321.683 -822.779,-321.683c-701.871,0 -1272.15,592.863 -1272.15,1294.81c0,701.788 570.296,1296.1 1272.15,1296.1c636.767,0 1070.08,-364.254 1159.25,-864.083l-1159.25,-0l0,-829.529l2000.6,-0c26.617,142.204 41.146,291.129 41.146,446.65c0.021,1215.03 -813.417,2079.11 -2041.75,2079.11Z" style="fill:#fff;"/></svg>