<?xml version="1.0" encoding="UTF-8" standalone="no"?><!DOCTYPE svg PUBLIC "-//W3C//DTD SVG 1.1//EN" "http://www.w3.org/Graphics/SVG/1.1/DTD/svg11.dtd"><svg width="100%" height="100%" viewBox="0 0 2778 2778" version="1.1" xmlns="http://www.w3.org/2000/svg" xmlns:xlink="http://www.w3.org/1999/xlink" xml:space="preserve" xmlns:serif="http://www.serif.com/" style="fill-rule:evenodd;clip-rule:evenodd;stroke-linejoin:round;stroke-miterlimit:2;"><g id="g17"><g id="g19"><g id="g21"><g id="g27"><path id="path29" d="M2777.78,1388.89c-0,-767.061 -621.828,-1388.89 -1388.89,-1388.89c-767.061,0 -1388.89,621.828 -1388.89,1388.89c0,651.361 448.417,1197.9 1053.37,1347.99l-0,-923.567l-286.4,0l-0,-424.422l286.4,-0l-0,-182.883c-0,-472.734 213.933,-691.845 678.044,-691.845c87.989,0 239.817,17.25 301.928,34.506l-0,384.744c-32.783,-3.45 -89.717,-5.178 -160.456,-5.178c-227.739,0 -315.733,86.267 -315.733,310.556l-0,150.1l453.661,-0l-77.933,424.422l-375.728,0l-0,954.295c687.7,-83.062 1220.63,-668.617 1220.63,-1378.72" style="fill:#728185;fill-rule:nonzero;"/></g></g></g></g></svg>